<svg xmlns="http://www.w3.org/2000/svg" viewBox="0 0 311.53 188.43"><defs><style>.cls-1{fill:#fff;}</style></defs><g id="Layer_2" data-name="Layer 2"><g id="Layer_2-2" data-name="Layer 2"><polygon class="cls-1" points="145 5.5 87.22 154.81 106.65 156.24 166.53 5.5 145 5.5"/><polygon class="cls-1" points="165.71 5.5 223.48 154.81 204.05 156.24 144.17 5.5 165.71 5.5"/><path class="cls-1" d="M221.91,169.72,233.78,185s6.05,7.83,12,0l63.39-83.07s5.3-8.65-.11-15.6l-64.65-83s-6.33-7.46-12,0L220,19.66l52.77,67.72a12.74,12.74,0,0,1,.12,15.6C266.86,111.51,221.91,169.72,221.91,169.72Z"/><path class="cls-1" d="M87.22,20.1,76.09,4.76s-5.67-7.89-11.54-.2L2.37,86s-5.23,8.5-.15,15.5L62.84,185s5.94,7.52,11.53.2l12.23-16L37.12,101a13,13,0,0,1,.14-15.5C43.14,77.15,87.22,20.1,87.22,20.1Z"/></g></g></svg>